# xmcd CD database file
#
# Track frame offsets:
#	150
#	14371
#	38346
#	56760
#	79799
#	105062
#	134093
#	151187
#	205337
#	237189
#	260887
#
# Disc length: 3698 seconds
#
# Revision: 0
# Processed by: cddbd v1.5.2PL0 Copyright (c) Steve Scherf et al.
# Submitted via: CDex 1.51
#
DISCID=890e700b
DTITLE=Wetterstein and Tube Rock - Rolling On
DYEAR=2002
DGENRE=Blues
TTITLE0=Startersong
TTITLE1=Every Night
TTITLE2=Evening Sun
TTITLE3=Traveller
TTITLE4=Blue Suede Shoes
TTITLE5=Alcohol
TTITLE6=Junky Girl
TTITLE7=Love Blues
TTITLE8=Help me
TTITLE9=Rolling On
TTITLE10=Climax
EXTD=YEAR: 2002
EXTT0=
EXTT1=
EXTT2=
EXTT3=
EXTT4=
EXTT5=
EXTT6=
EXTT7=
EXTT8=
EXTT9=
EXTT10=
PLAYORDER=
